:SAMPLES-PER-SECOND 30
:FULLY-SPECIFIED
:DEGREES
78
root  34.75386852 36.58143592 -13.88397067 10.21013355 -5.519514561 3.359231234
lowerback  -8.245129585 -0.2560770512 -0.5462626219
upperback  -3.627039909 0.1774719954 -3.672519922
thorax  0.8806629777 0.2416609973 -3.47104001
lowerneck  -10.45349979 -10.95610046 -8.024889946
upperneck  14.89179993 -15.09739971 10.3366003
head  7.717679977 -6.687210083 3.061079979
lclavicle  0 -4.497500157e-015 -2.743230041e-014
lhumerus  -47.60219955 31.17589951 62.53639984
lradius  0.001172923949 -6.507048965e-006 29.54329872
lwrist  3.192251654e-007 -3.790274832e-007 -29.1862011
lhand  -4.417146452e-031 -36.92589951 -10.65839958
lfingers  90 7.125020027 -90
lthumb  94.82462761 -25.49362004 101.0951321
rclavicle  0 -4.497500157e-015 -2.743230041e-014
rhumerus  -31.69599915 -21.53170013 -51.1242981
rradius  -5.16745672e-007 2.214343908e-008 97.31539917
rwrist  0.0003490542294 -0.002273720223 -173.8029938
rhand  -1.767719639e-031 2.830820084 -7.771259785
rfingers  -90 -7.125020027 -90
rthumb  -85.53835829 -8.22128555 -61.38029063
rfemur  -10.62003613 14.41932392 12.24763489
rtibia  0.585065484 -1.378844619 16.87606812
rfoot  2.210221052 -22.13057899 -33.51260757
rtoes  4.154345328 19.58108392 -102.2284788
lfemur  -1.749990106 -14.95427132 -23.42822838
ltibia  8.455573082 -0.518443644 3.991494417
lfoot  0.1280677766 -19.86071777 35.93488312
ltoes  -8.537614544 -18.15401868 -115.7257561
79
root  34.75090087 36.58027949 -13.88168786 10.19783211 -5.522925854 3.369460106
lowerback  -8.20701313 -0.2560878098 -0.6055407524
upperback  -3.656229973 0.1808239967 -3.666019917
thorax  0.8296660185 0.2445230037 -3.430229902
lowerneck  -10.35830021 -11.04090023 -8.093799591
upperneck  14.84869957 -15.21720028 10.4133997
head  7.710579872 -6.744919777 3.085109949
lclavicle  0 -4.497500157e-015 -2.743230041e-014
lhumerus  -47.64680099 31.25670052 62.48189926
lradius  0.001172923949 -6.507048965e-006 29.54763031
lwrist  3.192251654e-007 -3.790274832e-007 -29.34389877
lhand  -0 -36.93180084 -10.66819954
lfingers  90 7.125020027 -90
lthumb  94.82949047 -25.50305286 101.1023513
rclavicle  0 -4.497500157e-015 -2.743230041e-014
rhumerus  -30.8878994 -21.5678997 -50.55899811
rradius  -5.16745672e-007 2.214343908e-008 97.61060333
rwrist  0.0003490542294 -0.002273720223 -173.9539948
rhand  -1.767803804e-031 2.8854599 -7.839839935
rfingers  -90 -7.125020027 -90
rthumb  -85.55987456 -8.164666812 -61.33184513
rfemur  -10.70236683 14.43885612 12.27558708
rtibia  0.5364575386 -1.321156621 17.01488686
rfoot  2.221868038 -22.01599312 -33.40123749
rtoes  4.155870898 19.58077234 -102.2330308
lfemur  -1.71419692 -14.96331024 -23.44428444
ltibia  8.455619812 -0.5191546679 3.993029594
lfoot  0.1290071756 -19.87796974 35.98081589
ltoes  -8.54552519 -18.1503948 -115.7511479
80
root  34.74930891 36.57990103 -13.88058249 10.19146061 -5.526106358 3.3735888
lowerback  -8.214196205 -0.2564647794 -0.5981568098
upperback  -3.657900095 0.1808511764 -3.710740089
thorax  0.8320329785 0.245457992 -3.480760098
lowerneck  -10.28499985 -11.12460041 -8.117950439
upperneck  14.81400013 -15.34559917 10.51500034
head  7.709730148 -6.799940109 3.108249903
lclavicle  0 -4.497500157e-015 -2.743230041e-014
lhumerus  -47.57699966 31.17939949 62.49990082
lradius  0.001172923949 -6.507048965e-006 29.55667305
lwrist  3.192251654e-007 -3.790274832e-007 -29.18400002
lhand  -0 -36.97650146 -10.65530014
lfingers  90 7.125020027 -90
lthumb  94.84770975 -25.48881061 101.1490482
rclavicle  0 -4.497500157e-015 -2.743230041e-014
rhumerus  -30.01079941 -21.69860077 -50.03219986
rradius  -5.16745672e-007 2.214343908e-008 97.79750061
rwrist  0.0003490542294 -0.002273720223 -174.0939941
rhand  -1.768154169e-031 3.10255003 -7.731339931
rfingers  -90 -7.125020027 -90
rthumb  -85.46040512 -8.273855007 -61.11298556
rfemur  -10.60515785 14.46865749 12.25753307
rtibia  0.5714659691 -1.367358088 16.89178848
rfoot  2.221794367 -22.10056686 -33.50497818
rtoes  4.173678213 19.5771266 -102.2861703
lfemur  -1.70993948 -14.93336105 -23.44782829
ltibia  8.455682755 -0.5227541924 3.994838238
lfoot  0.1300460398 -19.87416077 35.9372406
ltoes  -8.554406996 -18.14632105 -115.7796629
81
root  34.74744962 36.5801263 -13.87747967 10.17618465 -5.528995514 3.371854305
lowerback  -8.212765694 -0.2569341063 -0.6157411337
upperback  -3.672529936 0.1793034971 -3.742320061
thorax  0.8157709837 0.2454774976 -3.50406003
lowerneck  -10.20930004 -11.20639992 -8.105790138
upperneck  14.7802 -15.46689892 10.55160046
head  7.699530125 -6.856140137 3.106170177
lclavicle  0 -4.497500157e-015 -2.743230041e-014
lhumerus  -47.54740143 31.13489914 62.48160172
lradius  0.001172923949 -6.507048965e-006 29.55120277
lwrist  3.192251654e-007 -3.790274832e-007 -29.18569946
lhand  -4.417981087e-031 -36.94029999 -10.61769962
lfingers  90 7.125020027 -90
lthumb  94.82269544 -25.45320061 101.1068052
rclavicle  0 -4.497500157e-015 -2.743230041e-014
rhumerus  -29.14480019 -21.86560059 -49.47359848
rradius  -5.16745672e-007 2.214343908e-008 97.95300293
rwrist  0.0003490542294 -0.002273720223 -174.0339966
rhand  -1.768491735e-031 3.298160076 -7.226560116
rfingers  -90 -7.125020027 -90
rthumb  -85.16961627 -8.727737616 -60.88576951
rfemur  -10.62033653 14.46899986 12.27711391
rtibia  0.5530387163 -1.342988968 16.92563629
rfoot  2.242308378 -22.03982544 -33.44585419
rtoes  4.175026167 19.57684997 -102.2901931
lfemur  -1.683097959 -14.9292593 -23.4550705
ltibia  8.45578289 -0.5158408284 3.996855259
lfoot  0.1308146715 -19.90595245 35.91876221
ltoes  -8.545493037 -18.15040954 -115.7510447
82
root  34.74571048 36.58341535 -13.87561287 10.18304634 -5.530315876 3.39674902
lowerback  -8.187835693 -0.2572217882 -0.6077357531
upperback  -3.677870035 0.1780178249 -3.760449886
thorax  0.7967410088 0.2456665188 -3.527440071
lowerneck  -10.17599964 -11.28800011 -8.125639915
upperneck  14.78880024 -15.58620071 10.59840012
head  7.714079857 -6.909100056 3.10965991
lclavicle  0 -4.497500157e-015 -2.743230041e-014
lhumerus  -47.54779816 31.12829971 62.46730042
lradius  0.001172923949 -6.507048965e-006 29.5847187
lwrist  3.192251654e-007 -3.790274832e-007 -29.25709915
lhand  -4.418584162e-031 -36.95069885 -10.6239996
lfingers  90 7.125020027 -90
lthumb  94.82893757 -25.45902318 101.1185748
rclavicle  0 -4.497500157e-015 -2.743230041e-014
rhumerus  -28.26589966 -21.99270058 -48.88299942
rradius  -5.16745672e-007 2.214343908e-008 98.06610107
rwrist  0.0003490542294 -0.002273720223 -174.1459961
rhand  -1.769315638e-031 3.732569933 -7.360239983
rfingers  -90 -7.125020027 -90
rthumb  -85.13742631 -8.638182176 -60.47213211
rfemur  -10.56440449 14.45221996 12.23983669
rtibia  0.5710659623 -1.406811357 16.85324287
rfoot  2.23208189 -22.15829659 -33.50088882
rtoes  4.164349475 19.57903854 -102.2583309
lfemur  -1.700801849 -14.91266441 -23.46977234
ltibia  8.4559412 -0.5126207471 3.999015093
lfoot  0.1309434474 -19.91131401 35.92390823
ltoes  -8.529377266 -18.15778775 -115.699321
83
root  34.74399837 36.58511244 -13.87310328 10.18636799 -5.526839733 3.394673109
lowerback  -8.151399612 -0.2570539415 -0.6323541403
upperback  -3.689510107 0.1788309962 -3.786420107
thorax  0.7645639777 0.2471099943 -3.540869951
lowerneck  -10.11610031 -11.36709976 -8.102959633
upperneck  14.75279999 -15.69900131 10.59469986
head  7.700749874 -6.964630127 3.093460083
lclavicle  0 -4.497500157e-015 -2.743230041e-014
lhumerus  -47.53390121 31.1303997 62.44279861
lradius  0.001172923949 -6.507048965e-006 29.58106804
lwrist  3.192251654e-007 -3.790274832e-007 -29.28079987
lhand  -4.41948382e-031 -36.96620178 -10.61989975
lfingers  90 7.125020027 -90
lthumb  94.83532623 -25.45442273 101.1348166
rclavicle  0 -4.497500157e-015 -2.743230041e-014
rhumerus  -27.44939995 -22.20690155 -48.38130188
rradius  -5.16745672e-007 2.214343908e-008 98.10780334
rwrist  0.0003490542294 -0.002273720223 -174.5460052
rhand  -1.769327453e-031 3.738430023 -7.176939964
rfingers  -90 -7.125020027 -90
rthumb  -85.04466549 -8.79805815 -60.45265659
rfemur  -10.5031271 14.39463139 12.23410892
rtibia  0.5932456255 -1.436263323 16.75616837
rfoot  2.258838415 -22.1887188 -33.49676514
rtoes  4.162008069 19.57951771 -102.2513439
lfemur  -1.705190539 -14.9769268 -23.4653511
ltibia  8.456176758 -0.5529926419 4.001253128
lfoot  0.1305179745 -19.81261444 35.93237686
ltoes  -8.525744481 -18.15944854 -115.6876643
84
root  34.74278788 36.58656323 -13.87122447 10.15027046 -5.514164448 3.414166212
lowerback  -8.150039673 -0.2562509477 -0.6377025843
upperback  -3.715759993 0.1842789948 -3.811800003
thorax  0.736995995 0.2513279915 -3.563899994
lowerneck  -10.00590038 -11.45909977 -8.114100456
upperneck  14.67609978 -15.83310032 10.65480042
head  7.675829887 -7.029250145 3.102950096
lclavicle  0 -4.497500157e-015 -2.743230041e-014
lhumerus  -47.51950073 31.11599922 62.41609955
lradius  0.001172923949 -6.507048965e-006 29.56795502
lwrist  3.192251654e-007 -3.790274832e-007 -29.38739967
lhand  -4.418915034e-031 -36.95640182 -10.64379978
lfingers  90 7.125020027 -90
lthumb  94.83582184 -25.47818458 101.1264837
rclavicle  0 -4.497500157e-015 -2.743230041e-014
rhumerus  -26.62929916 -22.32979965 -47.88800049
rradius  -5.16745672e-007 2.214343908e-008 98.24199677
rwrist  0.0003490542294 -0.002273720223 -174.4730072
rhand  -1.769671453e-031 3.905169964 -6.95126009
rfingers  -90 -7.125020027 -90
rthumb  -84.89297653 -9.004335398 -60.2724102
rfemur  -10.47807503 14.38583469 12.22990799
rtibia  0.5817214847 -1.435238719 16.78930855
rfoot  2.250737906 -22.19786835 -33.48524094
rtoes  4.157502674 19.58043895 -102.2378999
lfemur  -1.661113143 -14.95515823 -23.49973488
ltibia  8.45650959 -0.5373705626 4.003503799
lfoot  0.1299206316 -19.87174034 35.94363403
ltoes  -8.513708097 -18.16494488 -115.64905
